<?xml version="1.0" standalone="no"?>
<!DOCTYPE svg PUBLIC "-//W3C//DTD SVG 20010904//EN"
 "http://www.w3.org/TR/2001/REC-SVG-20010904/DTD/svg10.dtd">
<svg version="1.0" xmlns="http://www.w3.org/2000/svg"
 width="700.000000pt" height="700.000000pt" viewBox="0 0 700.000000 700.000000"
 preserveAspectRatio="xMidYMid meet">
<metadata>
Created by potrace 1.11, written by Peter Selinger 2001-2013
</metadata>
<g transform="translate(0.000000,700.000000) scale(0.100000,-0.100000)"
fill="#000000" stroke="none">
<path d="M3841 6472 l-528 -527 583 -940 c321 -517 634 -1021 695 -1120 62
-99 140 -225 174 -280 62 -99 775 -1250 1072 -1730 85 -137 165 -266 178 -285
12 -19 147 -237 300 -485 153 -247 297 -479 320 -515 22 -36 72 -116 111 -178
38 -62 96 -157 129 -211 33 -54 66 -105 74 -114 10 -13 11 -20 2 -30 -6 -8 -7
-17 -3 -21 4 -5 -67 38 -158 95 -91 56 -259 161 -375 232 -253 156 -398 246
-485 301 -36 23 -75 46 -85 53 -11 6 -120 74 -243 150 -122 76 -243 151 -270
167 -26 17 -195 122 -377 235 -356 221 -445 276 -573 355 -46 28 -95 58 -108
66 -13 8 -176 109 -362 225 -352 219 -783 485 -1282 794 -162 101 -311 193
-330 206 -35 22 -610 380 -745 462 -38 23 -167 103 -285 177 l-215 134 -527
-529 -528 -528 19 -48 c10 -26 31 -79 46 -118 15 -38 31 -79 36 -90 4 -11 36
-90 69 -175 33 -85 65 -164 70 -175 5 -11 77 -193 160 -405 104 -264 158 -390
173 -402 18 -13 646 -513 777 -618 19 -15 161 -128 315 -250 154 -123 298
-237 320 -256 22 -18 58 -46 79 -63 l39 -31 2446 2 2446 3 3 2446 2 2446 -227
285 c-126 157 -241 303 -258 324 -31 39 -101 127 -425 534 -232 292 -211 265
-252 316 -18 23 -42 53 -54 68 -15 19 -69 45 -200 96 -98 39 -199 79 -224 90
-46 19 -816 323 -928 366 l-63 24 -528 -528z m3139 -6447 c14 -19 14 -19 -2
-6 -10 7 -18 18 -18 24 0 6 1 8 3 6 1 -2 9 -13 17 -24z"/>
<path d="M3036 5448 c2 -55 11 -228 19 -358 2 -41 7 -140 11 -220 3 -80 7
-170 9 -200 2 -30 7 -122 10 -205 4 -82 8 -163 10 -180 2 -16 4 -37 4 -45 1
-8 22 -38 49 -66 26 -29 86 -94 133 -145 48 -52 99 -107 114 -124 16 -16 73
-79 129 -139 56 -60 108 -117 116 -126 8 -9 58 -64 112 -121 53 -57 108 -117
124 -134 48 -53 218 -237 253 -274 65 -70 216 -234 231 -252 13 -14 117 -127
245 -264 35 -38 191 -207 230 -250 26 -28 183 -198 250 -270 157 -169 222
-241 235 -255 22 -25 201 -218 230 -249 21 -22 222 -241 255 -277 6 -6 55 -59
110 -119 55 -59 111 -120 125 -135 14 -15 69 -75 123 -133 54 -58 107 -116
118 -129 11 -13 48 -52 82 -88 34 -36 107 -115 162 -175 55 -60 111 -121 125
-135 14 -15 63 -69 110 -120 47 -52 99 -108 115 -125 17 -18 39 -43 50 -56 20
-24 20 -24 -10 1 -41 35 -39 34 -170 155 -66 61 -131 121 -146 135 -15 14 -51
48 -81 75 -30 28 -105 97 -168 155 -63 58 -141 130 -175 161 -33 31 -74 70
-91 85 -17 16 -78 72 -134 124 -57 52 -111 102 -120 110 -18 16 -188 173 -256
237 -23 21 -68 62 -100 92 -64 59 -143 131 -244 226 -128 119 -285 264 -306
282 -12 10 -77 70 -145 133 -135 125 -237 219 -255 235 -6 6 -42 39 -81 75
-94 88 -290 270 -312 289 -16 14 -155 143 -255 236 -18 17 -84 77 -147 135
-63 58 -143 132 -179 166 -73 68 -150 139 -195 180 -16 15 -79 73 -140 129
-60 56 -122 113 -136 126 -38 35 -215 197 -263 242 -22 20 -49 37 -61 38 -11
1 -36 2 -55 4 -19 2 -98 6 -175 10 -77 3 -162 8 -190 10 -27 1 -117 6 -200 10
-82 4 -172 9 -200 10 -27 2 -117 6 -200 10 -82 3 -170 9 -195 11 l-45 4 27
-22 c15 -13 58 -45 95 -71 38 -26 129 -92 203 -145 74 -54 207 -149 295 -212
88 -63 165 -118 170 -123 6 -4 57 -42 115 -83 58 -41 114 -82 125 -90 11 -8
203 -146 426 -307 223 -161 499 -359 613 -442 114 -82 224 -162 244 -176 21
-14 206 -147 412 -296 206 -148 526 -379 710 -511 184 -133 344 -248 355 -256
43 -32 369 -266 535 -385 96 -69 180 -129 185 -134 23 -19 902 -649 917 -658
44 -24 17 25 -117 213 -81 112 -155 214 -165 228 -21 28 -245 339 -295 410
-18 25 -168 234 -335 465 -638 885 -715 991 -739 1026 -77 109 -226 315 -234
324 -4 6 -48 66 -97 135 -49 69 -93 130 -97 135 -5 6 -66 91 -138 190 -71 99
-187 261 -258 360 -72 99 -191 266 -266 370 -74 105 -138 192 -141 195 -15 14
-110 152 -110 159 0 5 -4 11 -8 13 -5 2 -75 95 -156 208 -81 113 -154 214
-162 225 -31 42 -340 471 -354 492 -48 68 -211 293 -213 293 -2 0 -2 -24 -1
-52z"/>
</g>
</svg>
