<svg width="93" height="101" viewBox="0 0 93 101" fill="none" xmlns="http://www.w3.org/2000/svg">
<g filter="url(#filter0_d_370_252)">
<path d="M46.1441 31L54 44.8889H45.224L39.217 31H46.1441ZM35.033 31L41.0399 44.8889H16.9601L22.967 31H35.033ZM11.8559 31H18.783L12.776 44.8889H4L11.8559 31ZM4 47.6667H12.7413L23.4184 69.5156C23.5486 69.7847 23.184 70.0278 22.9844 69.8021L4 47.6667ZM16.8646 47.6667H41.1354L29.2431 75.2882C29.1562 75.4965 28.8524 75.4965 28.7656 75.2882L16.8646 47.6667ZM34.5816 69.5156L45.2587 47.6667H54L35.0156 69.7934C34.816 70.0278 34.4514 69.7847 34.5816 69.5156Z" fill="#68D391"/>
</g>
<g filter="url(#filter1_d_370_252)">
<path d="M81.1441 31L89 44.8889H80.224L74.217 31H81.1441ZM70.033 31L76.0399 44.8889H51.9601L57.967 31H70.033ZM46.8559 31H53.783L47.776 44.8889H39L46.8559 31ZM39 47.6667H47.7413L58.4184 69.5156C58.5486 69.7847 58.184 70.0278 57.9844 69.8021L39 47.6667ZM51.8646 47.6667H76.1354L64.2431 75.2882C64.1562 75.4965 63.8524 75.4965 63.7656 75.2882L51.8646 47.6667ZM69.5816 69.5156L80.2587 47.6667H89L70.0156 69.7934C69.816 70.0278 69.4514 69.7847 69.5816 69.5156Z" fill="#68D391"/>
</g>
<g filter="url(#filter2_d_370_252)">
<path d="M69.8015 21.2437L69.5853 37.199L62.0058 32.7752L63.8188 17.752L69.8015 21.2437ZM60.2052 15.6429L58.3922 30.6661L37.5954 18.5281L49.7843 9.56077L60.2052 15.6429ZM40.1881 3.95995L46.1708 7.45171L33.9818 16.4191L26.4023 11.9953L40.1881 3.95995ZM25.002 14.3943L32.5516 18.8006L30.7595 43.0527C30.7363 43.3508 30.2989 43.3769 30.2402 43.0814L25.002 14.3943ZM36.1127 20.879L57.0744 33.1133L32.8802 50.9743C32.7002 51.1105 32.4378 50.9574 32.4679 50.7337L36.1127 20.879ZM40.4007 48.6798L60.6355 35.1918L68.1851 39.598L40.6355 49.1385C40.3449 49.2403 40.1526 48.8466 40.4007 48.6798Z" fill="#68D391"/>
</g>
<g filter="url(#filter3_d_370_252)">
<path d="M81.5 60.4167V62.3611C81.5 63.972 80.1942 65.2778 78.5833 65.2778H77.6111L74.4377 87.4916C74.0271 90.3654 71.566 92.5 68.663 92.5H24.337C21.434 92.5 18.9729 90.3654 18.5622 87.4916L15.3889 65.2778H14.4167C12.8058 65.2778 11.5 63.972 11.5 62.3611V60.4167C11.5 58.8058 12.8058 57.5 14.4167 57.5H22.6005H32.2177C32.2177 57.5 32.1268 58 27.4091 57.5C29.1461 58.7633 27.4091 57.5 22.6005 57.5H32.2177H60.7823C64 57.5 60.5 57.5 66.5 57.5C70.3995 57.5 67.5 57.5 70.3995 57.5L78.5833 57.5C80.1942 57.5 81.5 58.8058 81.5 60.4167ZM49.4167 81.8056V68.1944C49.4167 66.5836 48.1109 65.2778 46.5 65.2778C44.8891 65.2778 43.5833 66.5836 43.5833 68.1944V81.8056C43.5833 83.4164 44.8891 84.7222 46.5 84.7222C48.1109 84.7222 49.4167 83.4164 49.4167 81.8056ZM63.0278 81.8056V68.1944C63.0278 66.5836 61.722 65.2778 60.1111 65.2778C58.5003 65.2778 57.1944 66.5836 57.1944 68.1944V81.8056C57.1944 83.4164 58.5003 84.7222 60.1111 84.7222C61.722 84.7222 63.0278 83.4164 63.0278 81.8056ZM35.8056 81.8056V68.1944C35.8056 66.5836 34.4997 65.2778 32.8889 65.2778C31.278 65.2778 29.9722 66.5836 29.9722 68.1944V81.8056C29.9722 83.4164 31.278 84.7222 32.8889 84.7222C34.4997 84.7222 35.8056 83.4164 35.8056 81.8056Z" fill="#9F9383"/>
</g>
<rect x="23" y="64" width="46" height="22" fill="#9F9383"/>
<g filter="url(#filter4_d_370_252)">
<path d="M52.8576 68L56 73.5556H52.4896L50.0868 68H52.8576ZM48.4132 68L50.816 73.5556H41.184L43.5868 68H48.4132ZM39.1424 68H41.9132L39.5104 73.5556H36L39.1424 68ZM36 74.6667H39.4965L43.7674 83.4062C43.8194 83.5139 43.6736 83.6111 43.5938 83.5208L36 74.6667ZM41.1458 74.6667H50.8542L46.0972 85.7153C46.0625 85.7986 45.941 85.7986 45.9063 85.7153L41.1458 74.6667ZM48.2326 83.4062L52.5035 74.6667H56L48.4063 83.5174C48.3264 83.6111 48.1806 83.5139 48.2326 83.4062Z" fill="#68D391"/>
</g>
<defs>
<filter id="filter0_d_370_252" x="0" y="31" width="58" height="52.4444" filterUnits="userSpaceOnUse" color-interpolation-filters="sRGB">
<feFlood flood-opacity="0" result="BackgroundImageFix"/>
<feColorMatrix in="SourceAlpha" type="matrix" values="0 0 0 0 0 0 0 0 0 0 0 0 0 0 0 0 0 0 127 0" result="hardAlpha"/>
<feOffset dy="4"/>
<feGaussianBlur stdDeviation="2"/>
<feComposite in2="hardAlpha" operator="out"/>
<feColorMatrix type="matrix" values="0 0 0 0 0 0 0 0 0 0 0 0 0 0 0 0 0 0 0.25 0"/>
<feBlend mode="normal" in2="BackgroundImageFix" result="effect1_dropShadow_370_252"/>
<feBlend mode="normal" in="SourceGraphic" in2="effect1_dropShadow_370_252" result="shape"/>
</filter>
<filter id="filter1_d_370_252" x="35" y="31" width="58" height="52.4444" filterUnits="userSpaceOnUse" color-interpolation-filters="sRGB">
<feFlood flood-opacity="0" result="BackgroundImageFix"/>
<feColorMatrix in="SourceAlpha" type="matrix" values="0 0 0 0 0 0 0 0 0 0 0 0 0 0 0 0 0 0 127 0" result="hardAlpha"/>
<feOffset dy="4"/>
<feGaussianBlur stdDeviation="2"/>
<feComposite in2="hardAlpha" operator="out"/>
<feColorMatrix type="matrix" values="0 0 0 0 0 0 0 0 0 0 0 0 0 0 0 0 0 0 0.25 0"/>
<feBlend mode="normal" in2="BackgroundImageFix" result="effect1_dropShadow_370_252"/>
<feBlend mode="normal" in="SourceGraphic" in2="effect1_dropShadow_370_252" result="shape"/>
</filter>
<filter id="filter2_d_370_252" x="21.002" y="3.95995" width="52.7994" height="55.0658" filterUnits="userSpaceOnUse" color-interpolation-filters="sRGB">
<feFlood flood-opacity="0" result="BackgroundImageFix"/>
<feColorMatrix in="SourceAlpha" type="matrix" values="0 0 0 0 0 0 0 0 0 0 0 0 0 0 0 0 0 0 127 0" result="hardAlpha"/>
<feOffset dy="4"/>
<feGaussianBlur stdDeviation="2"/>
<feComposite in2="hardAlpha" operator="out"/>
<feColorMatrix type="matrix" values="0 0 0 0 0 0 0 0 0 0 0 0 0 0 0 0 0 0 0.25 0"/>
<feBlend mode="normal" in2="BackgroundImageFix" result="effect1_dropShadow_370_252"/>
<feBlend mode="normal" in="SourceGraphic" in2="effect1_dropShadow_370_252" result="shape"/>
</filter>
<filter id="filter3_d_370_252" x="7.5" y="57.5" width="78" height="43" filterUnits="userSpaceOnUse" color-interpolation-filters="sRGB">
<feFlood flood-opacity="0" result="BackgroundImageFix"/>
<feColorMatrix in="SourceAlpha" type="matrix" values="0 0 0 0 0 0 0 0 0 0 0 0 0 0 0 0 0 0 127 0" result="hardAlpha"/>
<feOffset dy="4"/>
<feGaussianBlur stdDeviation="2"/>
<feComposite in2="hardAlpha" operator="out"/>
<feColorMatrix type="matrix" values="0 0 0 0 0 0 0 0 0 0 0 0 0 0 0 0 0 0 0.25 0"/>
<feBlend mode="normal" in2="BackgroundImageFix" result="effect1_dropShadow_370_252"/>
<feBlend mode="normal" in="SourceGraphic" in2="effect1_dropShadow_370_252" result="shape"/>
</filter>
<filter id="filter4_d_370_252" x="32" y="68" width="28" height="25.7778" filterUnits="userSpaceOnUse" color-interpolation-filters="sRGB">
<feFlood flood-opacity="0" result="BackgroundImageFix"/>
<feColorMatrix in="SourceAlpha" type="matrix" values="0 0 0 0 0 0 0 0 0 0 0 0 0 0 0 0 0 0 127 0" result="hardAlpha"/>
<feOffset dy="4"/>
<feGaussianBlur stdDeviation="2"/>
<feComposite in2="hardAlpha" operator="out"/>
<feColorMatrix type="matrix" values="0 0 0 0 0 0 0 0 0 0 0 0 0 0 0 0 0 0 0.25 0"/>
<feBlend mode="normal" in2="BackgroundImageFix" result="effect1_dropShadow_370_252"/>
<feBlend mode="normal" in="SourceGraphic" in2="effect1_dropShadow_370_252" result="shape"/>
</filter>
</defs>
</svg>
