<svg xmlns="http://www.w3.org/2000/svg" width="245" height="211" fill="none" viewBox="0 0 245 211"><path fill="#111" d="M26.116 61.112V16.86h10.726l4.724 29.502 5.092-29.502h10.357v44.252h-6.593l-.197-31.124c-.492 3.196-1.353 8.384-2.583 15.562-1.23 7.179-2.091 12.366-2.583 15.562h-6.692l-5.437-31.32-.197 31.32h-6.617zM71.087 46.14h4.576l-2.239-16.422-2.337 16.422zM59.87 61.112l9.57-44.252h7.922l9.545 44.252h-8.832l-1.82-9.465h-5.782l-1.722 9.465H59.87zM92.761 61.112V23.547h-6.495V16.86h21.822v6.687h-6.372v37.565h-8.955zM109.244 46.337V31.685c0-10.457 4.281-15.685 12.842-15.685 1.804 0 3.403.246 4.798.738 1.41.475 2.591 1.139 3.542 1.99.951.853 1.731 1.902 2.337 3.148a14.91 14.91 0 011.329 4.056c.279 1.459.418 3.065.418 4.819v3.81h-8.807v-4.08c0-.804-.017-1.492-.049-2.066a14.43 14.43 0 00-.271-1.991c-.131-.754-.32-1.36-.566-1.82a3.088 3.088 0 00-1.058-1.204c-.459-.328-1.017-.492-1.673-.492-2.591 0-3.887 2.18-3.887 6.54V48.55c0 4.343 1.296 6.514 3.887 6.514.771 0 1.419-.22 1.944-.663.525-.443.902-1.066 1.131-1.869.23-.82.386-1.614.468-2.384.082-.787.123-1.68.123-2.68V42.92h8.758v3.736c-.033 1.689-.172 3.246-.418 4.672a17.807 17.807 0 01-1.255 4.154c-.59 1.344-1.345 2.483-2.263 3.418-.902.917-2.075 1.655-3.518 2.212-1.444.574-3.1.86-4.97.86-1.919 0-3.624-.278-5.117-.835-1.476-.541-2.698-1.27-3.665-2.188-.952-.935-1.739-2.074-2.362-3.418a17.548 17.548 0 01-1.329-4.277c-.246-1.492-.369-3.13-.369-4.917zM138.692 61.112V16.86h8.955v18.144h6.421V16.86h9.004v44.252h-9.004V41.371h-6.421v19.741h-8.955zM168.362 61.112V16.86h8.955v44.252h-8.955zM182.581 61.112V16.836h6.446l9.718 23.158V16.836h7.429v44.276h-6.199l-9.693-24.56v24.56h-7.701zM210.898 47.271V31.685c0-10.457 4.354-15.685 13.063-15.685 1.837 0 3.469.246 4.896.738 1.443.475 2.649 1.139 3.616 1.99.968.853 1.763 1.902 2.387 3.148a15.55 15.55 0 011.353 4.056c.279 1.459.418 3.065.418 4.819v2.605h-8.561V30.26c0-.77-.025-1.442-.074-2.016a11.446 11.446 0 00-.295-1.942c-.164-.721-.386-1.311-.665-1.77-.278-.46-.68-.844-1.205-1.156-.525-.311-1.148-.467-1.87-.467-2.739 0-4.108 2.18-4.108 6.54V48.55c0 4.343 1.369 6.514 4.108 6.514 2.723 0 4.084-2.253 4.084-6.76v-3.54h-5.068v-6.417H237v22.765h-6.15l-1.132-3.098c-.754 1.18-1.829 2.14-3.223 2.877-1.394.72-2.829 1.081-4.305 1.081-1.591 0-3.042-.286-4.355-.86-1.295-.59-2.37-1.36-3.222-2.31-.837-.968-1.542-2.099-2.116-3.394a17.528 17.528 0 01-1.23-3.958 23.44 23.44 0 01-.369-4.179zM30.126 127.601L24 83.35h7.627l2.755 29.304L38.17 83.35h6.57l3.714 29.132 2.878-29.132h7.651l-6.2 44.251h-7.65l-3.715-28.96-3.641 28.96h-7.651zM61.468 113.047V98.174c0-10.457 4.314-15.685 12.94-15.685 8.644 0 12.966 5.228 12.966 15.685v14.652c0 1.77-.132 3.409-.394 4.917a16.506 16.506 0 01-1.353 4.253c-.623 1.344-1.427 2.491-2.411 3.442-.968.934-2.198 1.672-3.69 2.212-1.493.541-3.199.812-5.117.812-1.903 0-3.6-.271-5.093-.812-1.493-.524-2.723-1.237-3.69-2.138-.968-.918-1.772-2.033-2.411-3.344a17.452 17.452 0 01-1.353-4.228c-.263-1.492-.394-3.123-.394-4.893zm16.95 2.016V95.937c0-4.36-1.336-6.54-4.01-6.54-.803 0-1.484.205-2.041.615-.558.393-.968.942-1.23 1.647a10.758 10.758 0 00-.566 2.065c-.099.672-.148 1.41-.148 2.213v19.126c0 4.343 1.329 6.515 3.986 6.515 2.673 0 4.01-2.172 4.01-6.515zM101.052 101.763h2.559c.688 0 1.279-.229 1.771-.688.492-.459.845-1.041 1.058-1.746.229-.704.385-1.352.467-1.942.099-.59.148-1.147.148-1.671 0-.525-.041-1.066-.123-1.623a11.365 11.365 0 00-.394-1.844c-.18-.688-.492-1.245-.935-1.672a2.1 2.1 0 00-1.574-.663h-2.977v11.849zm-8.955 25.838V83.35h9.742c2.214 0 4.158.213 5.831.639 1.689.41 3.165 1.065 4.428 1.966 1.263.886 2.222 2.09 2.878 3.614.656 1.508.985 3.32.985 5.433 0 .918-.033 1.738-.099 2.459-.066.721-.221 1.549-.467 2.483a9.732 9.732 0 01-.96 2.458c-.41.705-1 1.402-1.771 2.09-.771.688-1.681 1.262-2.731 1.721 2.657 8.424 4.97 15.554 6.938 21.388h-9.275l-5.068-20.38h-1.476v20.38h-8.955zM119.7 127.601V83.35h8.955v16.791l6.938-16.791h10.012l-9.028 18.118 9.693 26.133h-9.3l-6.691-20.233-1.624 4.18v16.053H119.7zM147.992 127.601V83.35h8.955V127.6h-8.955zM162.211 127.601V83.325h6.446l9.718 23.158V83.325h7.429v44.276h-6.199l-9.693-24.559v24.559h-7.701zM190.528 113.76V98.174c0-10.457 4.354-15.685 13.063-15.685 1.837 0 3.469.246 4.896.738 1.443.475 2.649 1.139 3.616 1.991.968.852 1.763 1.901 2.387 3.147a15.549 15.549 0 011.353 4.056c.279 1.459.418 3.065.418 4.819v2.606H207.7v-3.098c0-.77-.025-1.442-.074-2.016a11.446 11.446 0 00-.295-1.942c-.164-.721-.386-1.311-.665-1.77-.279-.459-.68-.844-1.205-1.156-.525-.311-1.148-.467-1.87-.467-2.739 0-4.108 2.18-4.108 6.54v19.102c0 4.343 1.369 6.514 4.108 6.514 2.723 0 4.084-2.253 4.084-6.76v-3.54h-5.068v-6.417h14.023v22.765h-6.15l-1.132-3.097c-.755 1.18-1.829 2.138-3.223 2.876-1.394.721-2.829 1.082-4.305 1.082-1.591 0-3.043-.287-4.355-.861-1.295-.59-2.37-1.36-3.222-2.311-.837-.967-1.542-2.098-2.116-3.392a17.53 17.53 0 01-1.23-3.958 23.452 23.452 0 01-.369-4.18zM26.116 194.09v-44.251h10.726l4.724 29.501 5.092-29.501h10.357v44.251h-6.593l-.197-31.123c-.492 3.196-1.353 8.383-2.583 15.562-1.23 7.178-2.091 12.365-2.583 15.561h-6.692l-5.437-31.32-.197 31.32h-6.617zM62.28 194.09v-44.251h8.955v44.251H62.28zM76.5 194.09v-44.276h6.445l9.718 23.159v-23.159h7.43v44.276h-6.2L84.2 169.531v24.559h-7.7zM105.382 194.09v-44.251h9.25c2.952 0 5.38.27 7.282.811 1.919.525 3.42 1.401 4.502 2.631 1.099 1.212 1.853 2.671 2.263 4.376.427 1.704.64 3.876.64 6.514v14.505c0 1.573-.049 2.95-.147 4.13a22.321 22.321 0 01-.566 3.442c-.263 1.114-.632 2.065-1.107 2.852a9.574 9.574 0 01-1.796 2.163c-.738.672-1.632 1.205-2.682 1.598-1.033.394-2.255.697-3.665.91-1.395.213-3.002.319-4.822.319h-9.152zm9.299-6.269c.853 0 1.526-.008 2.018-.024.492-.033.984-.099 1.476-.197s.852-.229 1.082-.393c.23-.18.443-.435.64-.762.197-.328.32-.713.369-1.156.065-.459.098-1.024.098-1.696v-23.822c0-1.459-.434-2.426-1.304-2.901-.869-.475-2.329-.721-4.379-.738v31.689zM132.493 181.43l9.078-1.746c0 .901.016 1.696.049 2.385.033.688.115 1.442.246 2.261.148.804.336 1.467.566 1.992.246.508.582.942 1.008 1.303.443.344.96.516 1.55.516 1.772 0 2.657-1.131 2.657-3.393 0-3.097-1.746-6.178-5.24-9.243l-2.78-2.36a51.51 51.51 0 01-2.116-1.844c-.524-.492-1.148-1.156-1.869-1.992-.706-.835-1.263-1.638-1.673-2.409-.394-.786-.738-1.729-1.033-2.827a14.131 14.131 0 01-.419-3.491c0-3.589 1.14-6.425 3.42-8.506 2.28-2.098 5.306-3.147 9.078-3.147 3.132 0 5.798 1.115 7.995 3.344 2.198 2.229 3.297 4.916 3.297 8.063l-.025.32v.737l-9.25 1.279c0-.181.008-.459.025-.836.033-.393.049-.713.049-.959 0-.59-.041-1.155-.123-1.696a8.427 8.427 0 00-.418-1.623c-.181-.541-.468-.967-.861-1.278-.394-.328-.87-.492-1.427-.492-.984 0-1.722.385-2.214 1.156-.492.77-.738 1.68-.738 2.728 0 .918.139 1.779.418 2.582a7.87 7.87 0 001.304 2.262 21.43 21.43 0 001.623 1.72 42.671 42.671 0 001.969 1.697 41.88 41.88 0 011.746 1.45c1.263 1.115 2.329 2.164 3.199 3.147a23.97 23.97 0 012.46 3.294 14.366 14.366 0 011.722 3.983c.393 1.426.59 2.966.59 4.622 0 3.097-1.107 5.638-3.321 7.621-2.214 1.967-4.904 2.95-8.069 2.95-2.05 0-3.871-.377-5.462-1.131-1.591-.754-2.878-1.778-3.862-3.073a15.136 15.136 0 01-2.239-4.302c-.525-1.574-.828-3.262-.91-5.064z"/><path fill="#000" d="M0 4a4 4 0 1 1 8 0v203a4 4 0 0 1-8 0V4z"/></svg>