<svg xmlns="http://www.w3.org/2000/svg" width="680" height="118" fill="none" viewBox="0 0 680 118"><path fill="#111" d="M656.948 36c-15.298 0-22.947 9.275-22.947 27.944v26.66c-.02 2.877.209 5.75.685 8.587a29.052 29.052 0 002.396 7.557 19.313 19.313 0 004.226 5.975 19.98 19.98 0 006.503 3.898 27.862 27.862 0 009.018 1.374 25.528 25.528 0 009.137-1.494 18.362 18.362 0 006.622-4.003 21.747 21.747 0 004.33-6.078 29.023 29.023 0 002.396-7.557c.476-2.878.705-5.791.685-8.708V63.944C679.954 45.274 672.35 36 656.948 36zm7.351 58.8c.119 7.976-2.366 12.023-7.351 12.023-4.866 0-7.366-4.047-7.366-12.023V59.24c0-1.494.119-2.868.238-4.183a23.177 23.177 0 011.071-3.808 5.973 5.973 0 012.312-3.133 5.937 5.937 0 013.745-1.034c4.985 0 7.351 4.047 7.351 12.157V94.8zM614.388 35h-14.657L582 118h16.418l3.224-17.747h10.716l3.329 17.687H632L614.388 35zm-11.552 54.9l4.283-30.83 4.165 30.83h-8.448zM547.315 118V71.864L565.458 118H577V35h-13.938v43.373L545.025 35H533v83h14.315zM509.398 35h-14.646L477 118h16.423l3.21-17.687h10.719L510.697 118H527l-17.602-83zm-11.675 54.9l4.284-30.83 4.166 30.83h-8.45zM426.211 117.94l.357-58.75 10.072 58.75h12.315c.95-6.037 2.495-15.77 4.739-29.126 2.243-13.355 3.921-23.24 4.738-29.14l.357 58.22H471V35h-19.074l-9.359 55.233L433.787 35H414v83l12.211-.06zM374.86 117.97V80.878h12.143V118H404V35h-16.997v34.073H374.86V35H358v82.97h16.86zM305.94 98.706a33.088 33.088 0 002.336 7.681 20.375 20.375 0 004.307 6.156 18.835 18.835 0 006.658 3.939 25.376 25.376 0 009.221 1.509 23.657 23.657 0 008.993-1.509 17.82 17.82 0 006.415-4.059 19.612 19.612 0 004.095-6.157 33.653 33.653 0 002.335-7.545c.491-2.8.724-5.639.698-8.48v-6.746h-15.879v8.3c0 1.856-.121 3.365-.227 4.874a28.963 28.963 0 01-.819 4.3 6.199 6.199 0 01-2.108 3.365 5.063 5.063 0 01-3.503 1.162c-4.672 0-7.113-3.953-7.113-11.74v-34.42c0-7.908 2.335-11.846 7.113-11.846a5.236 5.236 0 013.033.92 4.984 4.984 0 011.88 2.204c.52 1.024.873 2.125 1.047 3.259.247 1.189.405 2.394.47 3.607 0 1.04.106 2.323.106 3.712v7.318h16v-6.896c.02-2.922-.213-5.84-.698-8.722a24.796 24.796 0 00-2.456-7.319 19.284 19.284 0 00-4.323-5.688 17.846 17.846 0 00-6.415-3.592 25.537 25.537 0 00-8.751-1.283C312.826 35.01 305 44.411 305 63.35v26.483c.162 2.956.476 5.903.94 8.828M289.057 118V47.535H301V35h-41v12.535h12.17V118h16.887zM244.036 35h-14.95L211 118h16.746l3.273-17.687h10.931l3.41 17.627H262L244.036 35zm-11.905 54.9l4.369-30.83 4.293 30.83h-8.662zM160.425 117.955l.363-58.728 10.249 58.728h12.531c.967-6.034 2.539-15.765 4.822-29.115 2.282-13.35 3.975-23.232 4.822-29.13l.363 58.26H206V35h-19.409l-9.538 55.258-8.919-55.228H148V118l12.425-.045z"/><path fill="#FF3536" fill-rule="evenodd" d="M73.065 0L55 17.767 118 118 51 26l1.083 21.379L118 118 46.623 52.098 25 51l93 67L17.752 56 0 73.767l9.281 23.457L35.46 118H118V35.474L96.879 9.296 73.065 0z" clip-rule="evenodd"/></svg>