<?xml version="1.0" encoding="UTF-8" standalone="no"?>
<svg viewBox="0 0 1875.11 324.3" version="1.1" xmlns="http://www.w3.org/2000/svg">
    <defs id="defs11">
        <style id="style9">
            .cls-2 {
                fill: #fe5c5c;
            }
        </style>
    </defs>
    <path class="cls-2"
        d="m 1522.2,99.12 c 0,1 0.08,2 0.08,3 v 196.11 c -1.16,0.06 -2,0.13 -2.92,0.13 -10.34,0 -20.68,-0.05 -31,0.05 -2.1,0 -2.67,-0.57 -2.8,-2.71 -0.31,-5.08 -1,-10.14 -1.62,-15.49 -3,2.05 -5.73,4 -8.56,5.87 a 89.13,89.13 0 0 1 -43,14 87.42,87.42 0 0 1 -58.15,-16.08 c -22.28,-15.74 -36.18,-37.17 -41.86,-63.95 a 101.28,101.28 0 0 1 -1.93,-31.48 c 3.19,-31.11 16.93,-56.68 42.31,-75.52 16.17,-12 34.31,-18.17 54.55,-17.68 17.53,0.42 33.39,6.25 48.22,15.21 2.61,1.58 5.08,3.36 8,5.34 0.73,-5.88 1.42,-11.48 2.14,-17.27 h 36.07 z m -40.32,103 c 0,-23.7 -7.19,-40.78 -21.84,-53.33 -14.65,-12.55 -31.89,-16.88 -50.5,-10.4 -25,8.71 -37.43,30.67 -39.78,54.33 -1,10.43 0.94,20.65 4.72,30.53 7.91,20.65 29.38,39.74 57.3,36.38 a 52,52 0 0 0 28,-12.11 61.38,61.38 0 0 0 22.1,-45.38 z"
        id="path15" />
    <path class="cls-2"
        d="m 339,153.19 a 32.39,32.39 0 0 1 -1.46,4.71 q -28.23,59.54 -56.54,119 c -2.34,4.92 -5.11,6.68 -10.06,6.42 -4.07,-0.21 -7.12,-2.83 -8.68,-7.62 Q 246.54,227.58 230.86,179.44 210.25,116.32 189.6,53.18 c -2.16,-6.61 -0.45,-10.41 6.06,-12.91 14,-5.38 28.12,-10.63 42.12,-16.09 a 11.1,11.1 0 0 1 10.92,1.31 q 32,21.15 64,42.24 a 10.7,10.7 0 0 1 4.83,6.19 q 10.38,37.69 20.73,75.4 c 0.31,1.11 0.45,2.26 0.74,3.87 z"
        id="path17" />
    <path class="cls-2"
        d="m 176.18,299.52 q -34.78,0 -69.56,0 a 15.91,15.91 0 0 1 -9.78,-3.13 Q 64.43,272.51 31.93,248.72 a 11.19,11.19 0 0 1 -4.57,-7 q -7.82,-36.1 -15.79,-72.18 a 8.31,8.31 0 0 1 2.86,-8.46 Q 31.29,146 48.23,131 c 4.36,-3.85 9.34,-3.76 14.17,0.11 q 22.29,17.89 44.54,35.75 l 127.54,102.28 q 9,7.25 18.05,14.52 c 4,3.24 5.08,6.22 3.79,10 -1.29,3.78 -4.6,6 -9.5,6 q -28.32,0 -56.62,-0.09 h -14 z"
        id="path19" />
    <path class="cls-2"
        d="m 851.72,197.89 q -0.44,55.56 -46.07,87.37 c -11.6,8.08 -24.81,12.42 -38.83,14.21 a 88.5,88.5 0 0 1 -13.08,1.06 C 731.65,300.01 711.58,293.43 694.4,279.3 673.45,262.06 660.61,240 656.7,213.08 a 95,95 0 0 1 -1.15,-20.33 c 2.25,-31.69 15.41,-57.83 40.83,-77.43 12.62,-9.7 26.62,-16.39 42.37,-18.79 21.94,-3.32 42.79,0.09 62,11.54 28,16.74 45,41.07 50,73.47 0.43,2.74 0.79,5.51 1,8.28 0.21,2.77 -0.03,5.38 -0.03,8.07 z m -40.5,-0.15 a 63.71,63.71 0 0 0 -0.05,-8.06 64.63,64.63 0 0 0 -14.71,-33.79 c -19.69,-23.59 -53.17,-27 -77.17,-7.85 -22.29,17.78 -29.88,50.55 -17.29,77.76 9,19.64 30.35,36.73 57.4,33.91 a 53.62,53.62 0 0 0 30.85,-13.35 c 14.41,-12.89 21.41,-29.22 20.97,-48.62 z"
        id="path21" />
    <path class="cls-2"
        d="m 628.13,131.15 -34,24.71 c -1.82,-2.07 -3.44,-4.23 -5.38,-6.07 -7.23,-6.85 -15.78,-11.49 -25.65,-12.68 -7,-0.83 -14.23,-1.25 -21,1.39 a 27.15,27.15 0 0 0 -7.64,4.36 c -4.39,3.73 -4.65,8.49 -0.37,12.32 a 60.55,60.55 0 0 0 12.26,8.66 c 9.87,5.11 20,9.72 30.07,14.44 12.14,5.7 23.87,11.91 34.11,20.83 24.44,21.3 25.7,56.25 2.6,79.05 -12,11.8 -26.57,18.08 -42.9,20.75 -4.92,0.8 -10,1.9 -14.87,1.51 a 130.06,130.06 0 0 1 -22.44,-3.71 c -21.28,-5.54 -37.07,-18.67 -49.2,-37.1 l 34.12,-21.43 c 0.68,0.83 1.32,1.54 1.87,2.32 6.74,9.47 15.59,15.75 27.19,17.83 12.63,2.26 24.36,0 35.06,-7.16 a 17,17 0 0 0 3,-2.69 c 4.55,-4.9 4.8,-10 0.69,-15.27 -5.22,-6.66 -12.32,-11 -19.66,-14.78 -12.19,-6.31 -24.62,-12.16 -36.82,-18.45 -11.83,-6.11 -22.51,-13.72 -30.68,-24.5 a 41.4,41.4 0 0 1 -8.5,-30.3 c 1.93,-17.85 11.74,-30.7 27.18,-39.3 14.68,-8.18 30.45,-11 47.25,-9.62 25.78,2.19 45.85,14.72 62.84,33.25 a 6.66,6.66 0 0 1 0.69,0.82 4.39,4.39 0 0 1 0.18,0.82 z"
        id="path23" />
    <path class="cls-2"
        d="m 1720.43,123.84 -27.43,29.1 c -4.58,-3.23 -8.82,-6.56 -13.38,-9.36 a 50.32,50.32 0 0 0 -27.56,-7.9 c -12.91,0.21 -23.94,5.09 -33.64,13.23 -13.2,11.09 -20,25.61 -21.61,42.53 -1.92,20.15 3.81,37.91 18.07,52.47 a 53.19,53.19 0 0 0 31.76,15.71 c 15.51,2.06 28.69,-3.39 40.66,-12.61 3.13,-2.41 6,-5.16 9.15,-7.92 l 28,28.68 c -3.93,3.53 -7.62,7.16 -11.63,10.4 -11.67,9.42 -24.61,16.44 -39.33,19.82 -7.77,1.78 -15.67,3.13 -23.64,2.54 -25.89,-1.91 -48,-12 -65.59,-31.32 a 103.32,103.32 0 0 1 -25.42,-51.43 c -7.63,-40.44 8.55,-83.7 45,-107.44 10.63,-6.91 22.15,-11.92 34.79,-13.82 24.67,-3.71 47.13,2 67.44,16.31 4.81,3.4 9.37,7.17 14.36,11.01 z"
        id="path25" />
    <path class="cls-2"
        d="m 1121.85,257.16 v 40.48 a 12.2,12.2 0 0 1 -1.82,0.25 c -11.32,-0.13 -22.71,0.45 -34,-0.57 -26.18,-2.4 -46.54,-15.16 -61.45,-36.67 -7.33,-10.58 -11.55,-22.43 -13.62,-35 a 71.9,71.9 0 0 1 -0.55,-11.28 q 0,-94.27 0,-188.53 v -2.38 h 40.28 v 75.1 h 42.17 v 40.6 h -42.06 v 3.23 q 0,35.42 0,70.83 c 0,22.38 14.53,39.66 36.63,43.51 a 49.33,49.33 0 0 0 8.07,0.41 c 7.73,0.05 15.46,0 23.19,0 z"
        id="path27" />
    <path class="cls-2"
        d="m 925.18,128.14 h 41.6 v 40.13 H 924.72 V 297.76 H 884.4 c 0,-0.95 -0.12,-1.83 -0.12,-2.7 q 0,-93.84 0,-187.67 a 84,84 0 0 1 58,-80.14 80.52,80.52 0 0 1 24.09,-3.93 c 9.17,-0.17 18.33,-0.07 27.5,-0.07 0.52,0 1,0.07 1.72,0.13 v 40.39 c -1.1,0 -2.06,0 -3,0 -9.17,0.1 -18.34,0 -27.49,0.34 -18.49,0.78 -36.88,14.64 -39.71,36.3 -1.18,8.97 -0.21,18.22 -0.21,27.73 z"
        id="path29" />
    <path class="cls-2"
        d="m 1862.12,298.17 c -13.2,-0.29 -26.25,0.47 -39,-1.08 -18.77,-2.29 -35,-10.81 -48.29,-24.47 -12.46,-12.79 -19.93,-28.13 -23.09,-45.6 a 52.51,52.51 0 0 1 -0.65,-9.3 q -0.08,-96.13 -0.06,-192.29 c 0,-0.61 0.08,-1.23 0.13,-2 h 40.11 v 75 h 42.14 v 40.83 h -41.82 c -0.09,0.85 -0.19,1.37 -0.19,1.88 0,25.05 -0.19,50.1 0.13,75.14 0.25,19.51 15.42,36.91 34.72,40 6.34,1 12.89,0.77 19.35,0.94 5.45,0.14 10.91,0 16.54,0 z"
        id="path31" />
    <path class="cls-2"
        d="m 1329.65,23.35 v 40.42 c -1.72,0 -3.31,0 -4.9,0 -8.54,0.1 -17.09,-0.06 -25.61,0.35 A 42.49,42.49 0 0 0 1259,104.21 c -0.38,7.25 -0.22,14.54 -0.29,21.8 0,0.61 0.09,1.22 0.16,2 h 42 v 40.3 h -42.15 v 129.43 h -40.11 c 0,-0.82 -0.13,-1.68 -0.13,-2.53 0,-62.85 0.1,-125.7 0,-188.54 -0.09,-35.84 24.07,-68.38 57.57,-79.32 a 87.33,87.33 0 0 1 25.39,-4.05 c 8.8,-0.19 17.62,-0.05 26.43,-0.05 0.53,0 1.06,0.06 1.78,0.1 z"
        id="path33" />
    <path class="cls-2"
        d="m 208.4,208.85 c -5.77,-9 -11.51,-18 -17.32,-26.93 q -20.79,-32.07 -41.64,-64.1 a 9.19,9.19 0 0 1 -0.89,-9.57 c 6.91,-15.85 13.59,-31.8 20.35,-47.73 0.72,-1.69 1.42,-3.45 3.66,-3.37 2,0.08 2.78,1.59 3.44,3.28 q 43.76,110.76 87.55,221.5 c 0.66,1.67 1.23,3.36 -0.61,4.56 -2,1.3 -3.82,0.8 -5.59,-0.78 -12.22,-11 -24.52,-21.89 -36.74,-32.88 Q 171.35,208.47 122.15,164.08 98.24,142.5 74.53,120.72 a 5,5 0 0 1 -1.4,-3.88 c 0.13,-0.7 2.26,-1.51 3.47,-1.49 10.31,0.25 20.61,0.65 30.91,1.07 6.51,0.26 13,0.62 19.52,1 3.21,0.17 6.54,-0.08 9.58,0.74 a 11.58,11.58 0 0 1 5.65,4.1 c 12.63,16.56 25.07,33.25 37.59,49.89 q 14,18.62 28.06,37.19 l 0.77,0.87 0.27,0.86 0.33,-0.06 -0.22,-1.12 z"
        id="path35" />
    <path class="cls-2"
        d="m 1173.57,246.19 c 10.34,-2 16.38,5.35 23.18,10.83 1.38,1.11 2,3.33 2.64,5.17 4.71,14.17 4.68,14.18 -0.62,28.09 -2,5.2 -14.65,14.12 -20.21,14.07 -17.66,-0.16 -11.6,1.8 -26.62,-9 a 12.54,12.54 0 0 1 -3.89,-5.3 124.77,124.77 0 0 1 -4.21,-12.73 8.09,8.09 0 0 1 0.08,-4.2 c 1.08,-3.87 2.41,-7.68 3.65,-11.5 0.16,-0.52 0.33,-1 0.52,-1.53 2,-5.11 14.83,-13.86 20.36,-13.9 z"
        id="path37" />
</svg>
